<?xml version="1.0" standalone="no"?>
<!DOCTYPE svg PUBLIC "-//W3C//DTD SVG 20010904//EN"
 "http://www.w3.org/TR/2001/REC-SVG-20010904/DTD/svg10.dtd">
<svg version="1.0" xmlns="http://www.w3.org/2000/svg"
 width="512.000000pt" height="512.000000pt" viewBox="0 0 512.000000 512.000000"
 preserveAspectRatio="xMidYMid meet">
<metadata>
Created by potrace 1.16, written by Peter Selinger 2001-2019
</metadata>
<g transform="translate(0.000000,512.000000) scale(0.100000,-0.100000)"
fill="#000000" stroke="none">
<path d="M465 4718 c-27 -5 -87 -27 -133 -48 -108 -51 -222 -161 -270 -260
-66 -137 -62 -6 -62 -1950 0 -1960 -5 -1815 67 -1954 44 -84 143 -188 223
-233 30 -17 87 -42 125 -55 l70 -23 2075 0 2075 0 70 23 c39 13 95 38 125 55
80 45 179 149 223 233 72 138 67 27 67 1659 0 1621 4 1521 -63 1655 -42 84
-159 204 -244 248 -34 18 -96 41 -139 52 -75 19 -115 20 -1291 20 l-1213 0 0
33 c0 55 -37 184 -72 250 -42 80 -155 193 -235 235 -34 18 -96 41 -139 52 -73
19 -110 20 -643 19 -311 -1 -588 -6 -616 -11z m4160 -1013 c32 -20 56 -45 72
-74 l23 -45 -2 -1430 -3 -1431 -24 -36 c-14 -20 -41 -47 -60 -60 l-35 -24
-2036 0 -2036 0 -35 24 c-19 13 -46 40 -60 60 l-24 36 -3 1429 -2 1429 21 44
c23 48 77 90 131 103 18 5 931 7 2029 7 l1996 -2 48 -30z"/>
<path d="M2270 3328 c-26 -14 -57 -41 -75 -66 l-30 -44 -3 -329 -3 -329 -223
0 c-241 0 -255 -3 -241 -52 9 -28 756 -778 805 -807 49 -29 89 -27 136 8 66
49 781 774 789 800 14 46 -8 51 -246 51 l-218 0 -3 329 -3 329 -30 44 c-18 25
-49 52 -75 66 -42 21 -55 22 -290 22 -235 0 -248 -1 -290 -22z"/>
<path d="M1373 1628 c6 -167 19 -226 68 -328 42 -85 161 -206 244 -247 144
-72 93 -68 875 -68 782 0 731 -4 875 68 83 41 202 162 244 247 49 102 62 161
68 328 l6 152 -207 0 -206 0 0 -120 c0 -162 -19 -207 -105 -254 -40 -21 -45
-21 -675 -21 -630 0 -635 0 -675 21 -86 47 -105 92 -105 254 l0 120 -206 0
-207 0 6 -152z"/>
</g>
</svg>
